<?xml version="1.0" encoding="utf-8"?>
<!-- Generator: Adobe Illustrator 26.0.3, SVG Export Plug-In . SVG Version: 6.00 Build 0)  -->
<svg version="1.1" id="Layer_1" xmlns="http://www.w3.org/2000/svg" xmlns:xlink="http://www.w3.org/1999/xlink" x="0px" y="0px"
	 viewBox="0 0 56.37 43.02" style="enable-background:new 0 0 56.37 43.02;" xml:space="preserve">
<path d="M-20.13,231.35c0,0.02-0.01,0.05-0.02,0.07c-0.27,0.12-0.56,0.19-0.86,0.2c0.26-0.03,0.51-0.1,0.74-0.2
	C-20.22,231.4-20.17,231.38-20.13,231.35z"/>
<g>
	<path d="M56.37,41.24c0,0.98-0.79,1.78-1.78,1.78H0V1.78C0,0.79,0.8,0,1.78,0c0.98,0,1.78,0.79,1.78,1.78v37.68h51.03
		C55.58,39.46,56.37,40.26,56.37,41.24z"/>
	<polygon points="49.7,29.56 49.7,36.18 6.68,36.18 6.68,21.09 20.94,6.83 34.76,20.65 43.48,11.93 	"/>
</g>
</svg>
