<?xml version="1.0" encoding="utf-8"?>
<!-- Generator: Adobe Illustrator 26.0.3, SVG Export Plug-In . SVG Version: 6.00 Build 0)  -->
<svg version="1.1" id="Layer_1" xmlns="http://www.w3.org/2000/svg" xmlns:xlink="http://www.w3.org/1999/xlink" x="0px" y="0px"
	 viewBox="0 0 48.93 38.78" style="enable-background:new 0 0 48.93 38.78;" xml:space="preserve">
<path d="M-232.01,671.39c0,0.02-0.01,0.05-0.02,0.07c-0.27,0.12-0.56,0.19-0.86,0.2c0.26-0.03,0.51-0.1,0.74-0.2
	C-232.1,671.44-232.05,671.42-232.01,671.39z"/>
<path d="M27.24,114.29l0.09,0.09v-0.18L27.24,114.29z"/>
<g>
	<polygon points="27.33,114.2 27.33,114.38 27.24,114.29 	"/>
</g>
<polygon points="27.33,114.2 27.33,114.38 27.24,114.29 "/>
<path d="M48.21,7.84c0.96,0.96,0.96,2.52,0,3.48L30.16,29.37l-8.55,8.56c-1.13,1.13-2.96,1.13-4.1,0l-8.56-8.56l-8.23-8.23
	c-0.96-0.96-0.96-2.52,0-3.48l7.12-7.12c0.96-0.96,2.52-0.96,3.48,0l8.23,8.23L37.61,0.72c0.96-0.96,2.52-0.96,3.48,0L48.21,7.84z"
	/>
</svg>
