<?xml version="1.0" encoding="utf-8"?>
<!-- Generator: Adobe Illustrator 26.0.3, SVG Export Plug-In . SVG Version: 6.00 Build 0)  -->
<svg version="1.1" id="Layer_1" xmlns="http://www.w3.org/2000/svg" xmlns:xlink="http://www.w3.org/1999/xlink" x="0px" y="0px"
	 viewBox="0 0 22 22" style="enable-background:new 0 0 22 22;" xml:space="preserve">
<g>
	<path d="M11,22C4.93,22,0,17.07,0,11S4.93,0,11,0s11,4.93,11,11S17.07,22,11,22z M11,2c-4.96,0-9,4.04-9,9c0,4.96,4.04,9,9,9
		c4.96,0,9-4.04,9-9C20,6.04,15.96,2,11,2z"/>
</g>
<g>
	<path d="M15,14c-0.15,0-0.3-0.03-0.45-0.11l-4-2C10.21,11.73,10,11.38,10,11V5c0-0.55,0.45-1,1-1s1,0.45,1,1v5.38l3.45,1.72
		c0.49,0.25,0.69,0.85,0.45,1.34C15.72,13.8,15.37,14,15,14z"/>
</g>
</svg>
