<?xml version="1.0" encoding="utf-8"?>
<!-- Generator: Adobe Illustrator 26.0.3, SVG Export Plug-In . SVG Version: 6.00 Build 0)  -->
<svg version="1.1" id="Layer_1" xmlns="http://www.w3.org/2000/svg" xmlns:xlink="http://www.w3.org/1999/xlink" x="0px" y="0px"
	 viewBox="0 0 42.74 36.39" style="enable-background:new 0 0 42.74 36.39;" xml:space="preserve">
<path d="M21.37,0C9.58-0.01,0.01,9.54,0,21.33c0,5.64,2.22,11.05,6.2,15.06h30.35c8.31-8.37,8.26-21.89-0.11-30.19
	C32.43,2.22,27.01-0.01,21.37,0z M21.37,5.35c1.47-0.01,2.66,1.18,2.67,2.65c0.01,1.47-1.18,2.66-2.65,2.67
	c-1.47,0.01-2.66-1.18-2.67-2.65c0-0.01,0-0.01,0-0.02C18.72,6.54,19.91,5.36,21.37,5.35z M7.01,24.88c-1.47,0-2.66-1.19-2.66-2.66
	c0-1.47,1.19-2.66,2.66-2.66c1.47,0,2.66,1.19,2.66,2.66c0,0,0,0.01,0,0.01C9.66,23.7,8.47,24.88,7.01,24.88z M10.89,16
	c-1.47,0-2.66-1.19-2.66-2.66c0-1.47,1.19-2.66,2.66-2.66c1.47,0,2.66,1.19,2.66,2.66c0,0,0,0,0,0C13.55,14.81,12.36,16,10.89,16z
	 M24.01,27.54c0,1.02-0.58,1.94-1.5,2.38l-0.14,0.07c-0.24,0.1-0.48,0.17-0.74,0.2h-0.27c-1.07,0-2.03-0.64-2.45-1.62l0,0
	c-0.14-0.32-0.21-0.66-0.21-1c-0.01-0.95,0.49-1.82,1.31-2.3l0.15-0.08c2.47-7.1,5-12.39,5.95-12.09s-0.14,6-2.35,13.07
	c0,0,0,0.1-0.05,0.15C23.91,26.7,24.01,27.11,24.01,27.54z M29.18,13.32c0.01-1.47,1.21-2.65,2.68-2.64
	c1.47,0.01,2.65,1.21,2.64,2.68c-0.01,1.45-1.19,2.63-2.64,2.64c-1.47,0-2.66-1.19-2.66-2.66c0-0.01,0-0.01,0-0.02L29.18,13.32z
	 M35.71,24.88c-1.47,0-2.66-1.19-2.66-2.66c0-1.47,1.19-2.66,2.66-2.66c1.47,0,2.66,1.19,2.66,2.66c0,0,0,0.01,0,0.01
	c-0.01,1.46-1.18,2.64-2.64,2.65L35.71,24.88z"/>
<path d="M9.39,78.58c0,0.02,0,0.05,0,0.07c-0.27,0.12-0.56,0.19-0.86,0.2c0.26-0.03,0.51-0.09,0.74-0.2L9.39,78.58z"/>
</svg>
