<?xml version="1.0" encoding="utf-8"?>
<!-- Generator: Adobe Illustrator 26.0.3, SVG Export Plug-In . SVG Version: 6.00 Build 0)  -->
<svg version="1.1" id="Layer_1" xmlns="http://www.w3.org/2000/svg" xmlns:xlink="http://www.w3.org/1999/xlink" x="0px" y="0px"
	 viewBox="0 0 512 437.85" style="enable-background:new 0 0 512 437.85;" xml:space="preserve">
<path d="M47.6,258.25l180.7,168.7c7.5,7,17.4,10.9,27.7,10.9c10.3,0,20.2-3.9,27.7-10.9l180.7-168.7c30.4-28.3,47.6-68,47.6-109.5
	v-5.8c0-69.9-50.5-129.5-119.4-141c-45.6-7.6-92,7.3-124.6,39.9l-12,12l-12-12c-32.6-32.6-79-47.5-124.6-39.9
	C50.5,13.45,0,73.05,0,142.95v5.8C0,190.25,17.2,229.95,47.6,258.25L47.6,258.25z"/>
</svg>
