<?xml version="1.0" encoding="utf-8"?>
<!-- Generator: Adobe Illustrator 26.0.3, SVG Export Plug-In . SVG Version: 6.00 Build 0)  -->
<svg version="1.1" id="Layer_1" xmlns="http://www.w3.org/2000/svg" xmlns:xlink="http://www.w3.org/1999/xlink" x="0px" y="0px"
	 viewBox="0 0 69.1 69.1" style="enable-background:new 0 0 69.1 69.1;" xml:space="preserve">
<path d="M-28.84,473.7c0,0.02-0.01,0.05-0.02,0.07c-0.27,0.12-0.56,0.19-0.86,0.2c0.26-0.03,0.51-0.1,0.74-0.2
	C-28.93,473.75-28.88,473.73-28.84,473.7z"/>
<path d="M34.55,0C15.47,0,0,15.47,0,34.55C0,53.63,15.47,69.1,34.55,69.1S69.1,53.63,69.1,34.55C69.1,15.47,53.63,0,34.55,0z
	 M39.45,54.7h-9.11v-8.75h9.11V54.7z M42,36.61c-1.88,1.24-3.01,2.2-3.41,2.9C38.2,40.2,38,41.49,38,43.37h-7.48v-1.11
	c0-3.51,0.27-5.73,0.82-6.65c0.55-0.92,2.01-2.25,4.37-3.99c1.23-0.91,2.09-1.75,2.58-2.54c0.48-0.78,0.72-1.75,0.72-2.91
	c0-1.43-0.45-2.56-1.36-3.38c-0.91-0.82-2.01-1.23-3.31-1.23c-3.42,0-5.34,2.41-5.77,7.25l-7.94-1.13c0.6-4.37,2.2-7.68,4.8-9.92
	c2.6-2.24,5.77-3.37,9.52-3.37c3.83,0,7.04,1.11,9.63,3.31c2.59,2.2,3.89,5,3.89,8.38C48.47,30.28,46.31,33.79,42,36.61z"/>
</svg>
