<?xml version="1.0" encoding="utf-8"?>
<!-- Generator: Adobe Illustrator 26.0.3, SVG Export Plug-In . SVG Version: 6.00 Build 0)  -->
<svg version="1.1" id="Layer_1" xmlns="http://www.w3.org/2000/svg" xmlns:xlink="http://www.w3.org/1999/xlink" x="0px" y="0px"
	 viewBox="0 0 72.2 64.51" style="enable-background:new 0 0 72.2 64.51;" xml:space="preserve">
<path d="M-23.42,45.73c0,0.02,0,0.05,0,0.07c-0.27,0.12-0.56,0.19-0.86,0.2c0.26-0.03,0.5-0.1,0.74-0.2L-23.42,45.73z"/>
<g>
	<path d="M62.63,53.68L38.88,29.93c5.39-8.57,5.3-18.93-0.89-25.12c-7.48-7.47-21-6.09-30.12,3.07S-2.67,30.52,4.8,38
		c6.2,6.21,16.55,6.3,25.12,0.9l23.76,23.74c2.49,2.49,6.51,2.49,9,0c2.49-2.49,2.49-6.51,0-9l0,0L62.63,53.68z M32.77,21.92
		l-1.58,1.58c-1.98-0.12-3.91,0.65-5.26,2.11c-1.46,1.35-2.23,3.28-2.11,5.26l-2,2c-3.45,3.44-9.03,3.43-12.47-0.02
		s-3.43-9.03,0.02-12.47l2.16-2.16c1.85-0.02,3.61-0.79,4.88-2.14c1.35-1.27,2.12-3.04,2.14-4.89l1.75-1.75
		c3.52-3.36,9.11-3.23,12.47,0.29C36.02,13.15,36.02,18.51,32.77,21.92z"/>
	<path d="M69.34,47.19h-9.82c-0.75,0-1.47-0.3-2-0.83l-5.88-5.86c-0.53-0.53-0.84-1.25-0.84-2v-9.84c0.01-1.58,1.3-2.85,2.88-2.84
		c0.75,0.01,1.47,0.31,2,0.84l15.68,15.66c1.12,1.11,1.12,2.91,0.01,4.03C70.83,46.89,70.1,47.2,69.34,47.19z"/>
</g>
</svg>
