<?xml version="1.0" encoding="utf-8"?>
<!-- Generator: Adobe Illustrator 26.0.3, SVG Export Plug-In . SVG Version: 6.00 Build 0)  -->
<svg version="1.1" id="Layer_1" xmlns="http://www.w3.org/2000/svg" xmlns:xlink="http://www.w3.org/1999/xlink" x="0px" y="0px"
	 viewBox="0 0 60.66 40" style="enable-background:new 0 0 60.66 40;" xml:space="preserve">
<path d="M-132.22,592.91c0,0.02,0,0.05,0,0.07c-0.27,0.12-0.56,0.19-0.86,0.2c0.26-0.03,0.5-0.1,0.74-0.2
	C-132.3,592.96-132.26,592.94-132.22,592.91z"/>
<path d="M127,35.81l0.09,0.09v-0.18L127,35.81z"/>
<polygon points="127.12,35.72 127.12,35.9 127.03,35.81 "/>
<polygon points="127.12,35.72 127.12,35.9 127.03,35.81 "/>
<polygon points="60.66,19.83 60.66,20.01 60.57,19.92 "/>
<g>
	<path d="M58.91,0H1.75C0.78,0,0,0.78,0,1.75v36.46c-0.02,0.97,0.74,1.77,1.71,1.79c0.01,0,0.03,0,0.04,0h57.16
		c0.97,0,1.75-0.78,1.75-1.75V20l-0.09-0.09l0.09-0.09V1.75C60.66,0.78,59.88,0,58.91,0z M55.3,25.19l-9.41,9.41
		c-0.73,0.73-1.73,1.14-2.76,1.14H17.41c-1.03,0-2.03-0.41-2.76-1.14l-9.29-9.29c-0.73-0.73-1.14-1.73-1.14-2.76v-5.26
		c0-1.03,0.41-2.03,1.14-2.76l9.3-9.3c0.73-0.73,1.73-1.14,2.76-1.14h25.7c1.03,0,2.03,0.41,2.76,1.14l9.42,9.42
		c0.73,0.73,1.14,1.73,1.14,2.76v5C56.45,23.45,56.04,24.45,55.3,25.19z"/>
	<path d="M29.42,6.4c-7.47-0.01-13.52,6.04-13.53,13.51s6.04,13.52,13.51,13.53c7.47,0.01,13.52-6.04,13.53-13.51c0,0,0-0.01,0-0.01
		C42.93,12.46,36.88,6.41,29.42,6.4z M36,27.92H23.87V24H28v-8.11h-4.13v-4h8V24H36V27.92z"/>
</g>
</svg>
