<?xml version="1.0" encoding="utf-8"?>
<!-- Generator: Adobe Illustrator 26.0.3, SVG Export Plug-In . SVG Version: 6.00 Build 0)  -->
<svg version="1.1" id="Layer_1" xmlns="http://www.w3.org/2000/svg" xmlns:xlink="http://www.w3.org/1999/xlink" x="0px" y="0px"
	 viewBox="0 0 59 43.02" style="enable-background:new 0 0 59 43.02;" xml:space="preserve">
<path d="M-155.16,652.05c0,0.02-0.01,0.05-0.02,0.07c-0.27,0.12-0.56,0.19-0.86,0.2c0.26-0.03,0.51-0.1,0.74-0.2
	C-155.25,652.1-155.2,652.08-155.16,652.05z"/>
<path d="M104.09,94.95l0.09,0.09v-0.18L104.09,94.95z"/>
<g>
	<polygon points="104.18,94.86 104.18,95.04 104.09,94.95 	"/>
</g>
<polygon points="104.18,94.86 104.18,95.04 104.09,94.95 "/>
<g>
	<path d="M59,40.89c0.04,0.61-0.2,1.16-0.59,1.55c-0.36,0.36-0.86,0.58-1.41,0.58H0V2c0-1.11,0.9-2,2-2c0.55,0,1.05,0.22,1.42,0.58
		C3.78,0.94,4,1.44,4,2v37.02h52.88C57.95,39.02,58.93,39.82,59,40.89z"/>
	<path d="M25.34,23.27L13.08,35.53c-0.74,0.74-1.95,0.74-2.69,0l-2.51-2.51c-0.74-0.74-0.74-1.95,0-2.69l16.28-16.28
		c0.65-0.65,1.71-0.65,2.36,0l4.02,4.02l2.57,2.57l10.51-10.51l-3.98-3.98c-0.56-0.56-0.22-1.51,0.57-1.59l14.64-1.44
		c0.59-0.06,1.08,0.43,1.02,1.02l-1.43,14.64c-0.08,0.78-1.03,1.13-1.59,0.57l-4.03-4.03l-15.71,15.7"/>
</g>
</svg>
