<?xml version="1.0" encoding="utf-8"?>
<!-- Generator: Adobe Illustrator 26.0.3, SVG Export Plug-In . SVG Version: 6.00 Build 0)  -->
<svg version="1.1" id="Layer_1" xmlns="http://www.w3.org/2000/svg" xmlns:xlink="http://www.w3.org/1999/xlink" x="0px" y="0px"
	 viewBox="0 0 31.78 31.78" style="enable-background:new 0 0 31.78 31.78;" xml:space="preserve">
<path d="M-38.58,360.33c0,0.02-0.01,0.05-0.02,0.07c-0.27,0.12-0.56,0.19-0.86,0.2c0.26-0.03,0.51-0.1,0.74-0.2
	C-38.67,360.38-38.62,360.36-38.58,360.33z"/>
<g>
	<path d="M31.78,18.17v-4.56c0-0.6-0.48-1.08-1.08-1.08h-2.25c-0.29-1.12-0.74-2.18-1.3-3.15l1.59-1.59c0.42-0.42,0.42-1.1,0-1.53
		L25.5,3.03c-0.42-0.42-1.11-0.42-1.53,0l-1.59,1.59c-0.96-0.56-2-1-3.1-1.3V1.08c0-0.6-0.48-1.08-1.08-1.08h-4.57
		c-0.6,0-1.08,0.48-1.08,1.08v2.23c-1.11,0.3-2.17,0.73-3.14,1.3l-1.6-1.6c-0.42-0.42-1.1-0.42-1.52,0L3.06,6.24
		c-0.42,0.42-0.42,1.1,0,1.53l1.59,1.59c-0.58,0.98-1.03,2.05-1.33,3.18H1.08c-0.6,0-1.08,0.48-1.08,1.08v4.56
		c0,0.6,0.48,1.08,1.08,1.08h2.24c0.3,1.11,0.74,2.17,1.31,3.14l-1.6,1.6c-0.42,0.42-0.42,1.1,0,1.53l3.23,3.23
		c0.42,0.42,1.1,0.42,1.52,0l1.59-1.59c0.98,0.58,2.05,1.02,3.18,1.32v2.23c0,0.6,0.48,1.08,1.08,1.08h4.57
		c0.6,0,1.08-0.48,1.08-1.08v-2.25c1.11-0.3,2.17-0.75,3.14-1.32l1.58,1.58c0.42,0.42,1.1,0.42,1.52,0l3.23-3.23
		c0.42-0.42,0.42-1.1,0-1.53l-1.6-1.6c0.55-0.96,0.99-2.01,1.28-3.11h2.25C31.3,19.25,31.78,18.77,31.78,18.17z M16.04,22.35
		c-3.63,0.08-6.61-2.84-6.61-6.46c0-3.57,2.9-6.46,6.46-6.46c3.59,0,6.5,2.92,6.47,6.51C22.33,19.37,19.47,22.27,16.04,22.35z"/>
</g>
</svg>
