<?xml version="1.0" encoding="utf-8"?>
<!-- Generator: Adobe Illustrator 26.0.3, SVG Export Plug-In . SVG Version: 6.00 Build 0)  -->
<svg version="1.1" id="Layer_1" xmlns="http://www.w3.org/2000/svg" xmlns:xlink="http://www.w3.org/1999/xlink" x="0px" y="0px"
	 viewBox="0 0 70.35 62.39" style="enable-background:new 0 0 70.35 62.39;" xml:space="preserve">
<path d="M-19.6,200.49c0,0.02-0.01,0.05-0.02,0.07c-0.27,0.12-0.56,0.19-0.86,0.2c0.26-0.03,0.51-0.1,0.74-0.2
	C-19.69,200.54-19.64,200.52-19.6,200.49z"/>
<path d="M67.53,20V1.58c0-1.16-1.2-1.92-2.25-1.43L33.77,14.92H2.54c-1.4,0-2.54,1.14-2.54,2.54v17.07c0,1.4,1.14,2.54,2.54,2.54
	h7.22v21.1c0,2.33,1.89,4.22,4.22,4.22h15.64c1.73,0,2.73-1.96,1.72-3.36l-2.47-3.42c-3.51-4.85-5.39-10.68-5.39-16.66v-1.88h10.29
	v0.01l31.51,14.77c1.05,0.49,2.25-0.27,2.25-1.43V31.99c1.64-0.81,2.82-3.19,2.82-6S69.17,20.81,67.53,20z M60.58,43.7l-19.74-9.25
	c-1.1-0.52-1.81-1.62-1.81-2.84V20.37c0-1.22,0.7-2.32,1.81-2.84l19.74-9.25c0.78-0.36,1.67,0.2,1.67,1.06v33.3
	C62.25,43.5,61.36,44.07,60.58,43.7z"/>
</svg>
