<?xml version="1.0" encoding="utf-8"?>
<!-- Generator: Adobe Illustrator 26.0.3, SVG Export Plug-In . SVG Version: 6.00 Build 0)  -->
<svg version="1.1" id="Layer_1" xmlns="http://www.w3.org/2000/svg" xmlns:xlink="http://www.w3.org/1999/xlink" x="0px" y="0px"
	 viewBox="0 0 56.05 41.04" style="enable-background:new 0 0 56.05 41.04;" xml:space="preserve">
<path d="M79.93,347.64c0,0.02-0.01,0.05-0.02,0.07c-0.27,0.12-0.56,0.19-0.86,0.2c0.26-0.03,0.51-0.1,0.74-0.2
	C79.84,347.69,79.89,347.67,79.93,347.64z"/>
<g>
	<path d="M13.19,21.94v5.42h40.92c1.07,0,1.94,0.87,1.94,1.94v3.38c0,1.07-0.87,1.94-1.94,1.94H13.19v5.42
		c0,0.87-1.01,1.33-1.67,0.77L0,30.99l11.52-9.82C12.18,20.6,13.19,21.07,13.19,21.94z"/>
	<path d="M42.86,19.11v-5.42H1.94C0.87,13.69,0,12.82,0,11.75V8.37C0,7.3,0.87,6.43,1.94,6.43h40.92V1.02
		c0-0.87,1.01-1.33,1.67-0.77l11.52,9.81l-11.52,9.82C43.87,20.44,42.86,19.97,42.86,19.11z"/>
</g>
</svg>
