<?xml version="1.0" encoding="utf-8"?>
<!-- Generator: Adobe Illustrator 26.0.3, SVG Export Plug-In . SVG Version: 6.00 Build 0)  -->
<svg version="1.1" id="Layer_1" xmlns="http://www.w3.org/2000/svg" xmlns:xlink="http://www.w3.org/1999/xlink" x="0px" y="0px"
	 viewBox="0 0 45.1 48.84" style="enable-background:new 0 0 45.1 48.84;" xml:space="preserve">
<path d="M-42.02,88.96c0,0.02-0.01,0.05-0.02,0.07c-0.27,0.12-0.56,0.19-0.86,0.2c0.26-0.03,0.51-0.1,0.74-0.2
	C-42.11,89.01-42.06,88.99-42.02,88.96z"/>
<path d="M45.1,35.85v2.8c0,5.63-4.56,10.19-10.18,10.19H10.19C4.56,48.84,0,44.27,0,38.65v-2.8c0-5.44,2.42-10.32,6.26-13.61
	c1.73-1.49,4.29-1.33,5.92,0.27c2.67,2.62,6.33,4.24,10.37,4.24c4.04,0,7.71-1.61,10.38-4.23c1.63-1.59,4.19-1.75,5.92-0.26
	C42.68,25.54,45.1,30.41,45.1,35.85z"/>
<circle cx="22.55" cy="11.95" r="11.95"/>
</svg>
